<?xml version="1.0" encoding="UTF-8" standalone="no"?><!DOCTYPE svg PUBLIC "-//W3C//DTD SVG 1.1//EN" "http://www.w3.org/Graphics/SVG/1.1/DTD/svg11.dtd"><svg width="100%" height="100%" viewBox="0 0 500 500" version="1.1" xmlns="http://www.w3.org/2000/svg" xmlns:xlink="http://www.w3.org/1999/xlink" xml:space="preserve" xmlns:serif="http://www.serif.com/" style="fill-rule:evenodd;clip-rule:evenodd;stroke-linejoin:round;stroke-miterlimit:1.41421;"><path d="M250,1C387.427,1 499,112.573 499,250C499,387.427 387.427,499 250,499C112.573,499 1,387.427 1,250C1,112.573 112.573,1 250,1ZM155.275,421.462L155.275,192.514L84.164,192.514L84.164,421.462L155.275,421.462ZM421.5,421.462L421.5,295.698C421.5,234.155 408.258,186.773 336.305,186.773C301.706,186.773 278.513,205.757 269.022,223.745L268.026,223.745L268.026,192.514L199.824,192.514L199.824,421.462L270.859,421.462L270.859,308.098C270.859,278.245 276.523,249.388 313.494,249.388C349.93,249.388 350.466,283.45 350.466,310.012L350.466,421.462L421.5,421.462ZM119.681,161.284C96.947,161.284 78.5,142.454 78.5,119.72C78.5,96.986 96.947,78.538 119.681,78.538C142.415,78.538 160.863,96.986 160.863,119.72C160.863,142.454 142.415,161.284 119.681,161.284Z" style="fill:#5893f8;"/></svg>