<?xml version="1.0" encoding="UTF-8" standalone="no"?><!DOCTYPE svg PUBLIC "-//W3C//DTD SVG 1.1//EN" "http://www.w3.org/Graphics/SVG/1.1/DTD/svg11.dtd"><svg width="100%" height="100%" viewBox="0 0 500 500" version="1.1" xmlns="http://www.w3.org/2000/svg" xmlns:xlink="http://www.w3.org/1999/xlink" xml:space="preserve" xmlns:serif="http://www.serif.com/" style="fill-rule:evenodd;clip-rule:evenodd;stroke-linejoin:round;stroke-miterlimit:1.41421;"><g transform="matrix(0.996,0,0,0.996,1,1)"><path d="M250,0C387.979,0 500,112.021 500,250C500,387.979 387.979,500 250,500C112.021,500 0,387.979 0,250C0,112.021 112.021,0 250,0ZM406.5,169.75C422.251,158.249 436.001,144 446.999,128.001C432.5,134.25 416.75,138.751 400.499,140.5C417.249,130.501 429.999,114.751 435.999,96C420.499,105.25 402.999,112.001 384.749,115.5C369.999,99.75 348.999,90 325.749,90C281,90 245,126.25 245,170.75C245,177 245.75,183.25 247,189.25C180,185.749 120.25,153.75 80.5,104.75C73.5,116.75 69.501,130.5 69.501,145.5C69.501,173.5 83.75,198.249 105.5,212.75C92.251,212.25 79.75,208.5 69,202.5L69,203.5C69,242.75 96.751,275.249 133.751,282.75C127.001,284.499 119.751,285.5 112.501,285.5C107.251,285.5 102.251,284.999 97.251,284.25C107.501,316.25 137.251,339.5 172.751,340.25C145.001,362 110.25,374.75 72.501,374.75C65.751,374.75 59.501,374.5 53.001,373.75C88.751,396.749 131.251,410 177.001,410C325.501,410 406.75,286.999 406.75,180.25C406.75,176.75 406.75,173.25 406.5,169.75Z" style="fill:#5893f8;"/></g></svg>